<svg width="51" height="50" viewBox="0 0 51 50" fill="none" xmlns="http://www.w3.org/2000/svg">
<circle cx="25.0442" cy="25" r="25" fill="#08B805" fill-opacity="0.08"/>
<path d="M16.2942 26.25C16.2942 25.587 16.5576 24.9511 17.0264 24.4822C17.4953 24.0134 18.1311 23.75 18.7942 23.75H31.2942C31.9572 23.75 32.5931 24.0134 33.062 24.4822C33.5308 24.9511 33.7942 25.587 33.7942 26.25V33.75C33.7942 34.413 33.5308 35.0489 33.062 35.5178C32.5931 35.9866 31.9572 36.25 31.2942 36.25H18.7942C18.1311 36.25 17.4953 35.9866 17.0264 35.5178C16.5576 35.0489 16.2942 34.413 16.2942 33.75V26.25Z" stroke="url(#paint0_linear_47_453)" stroke-width="2" stroke-linecap="round" stroke-linejoin="round"/>
<path d="M20.0442 23.75V18.75C20.0442 17.4239 20.571 16.1521 21.5087 15.2145C22.4463 14.2768 23.7181 13.75 25.0442 13.75C26.3703 13.75 27.642 14.2768 28.5797 15.2145C29.5174 16.1521 30.0442 17.4239 30.0442 18.75V23.75M23.7942 30C23.7942 30.3315 23.9259 30.6495 24.1603 30.8839C24.3947 31.1183 24.7127 31.25 25.0442 31.25C25.3757 31.25 25.6937 31.1183 25.9281 30.8839C26.1625 30.6495 26.2942 30.3315 26.2942 30C26.2942 29.6685 26.1625 29.3505 25.9281 29.1161C25.6937 28.8817 25.3757 28.75 25.0442 28.75C24.7127 28.75 24.3947 28.8817 24.1603 29.1161C23.9259 29.3505 23.7942 29.6685 23.7942 30Z" stroke="url(#paint1_linear_47_453)" stroke-width="2" stroke-linecap="round" stroke-linejoin="round"/>
<defs>
<linearGradient id="paint0_linear_47_453" x1="25.0442" y1="23.75" x2="25.0442" y2="36.25" gradientUnits="userSpaceOnUse">
<stop stop-color="#08B805" stop-opacity="0.45"/>
<stop offset="1" stop-color="#08B805"/>
</linearGradient>
<linearGradient id="paint1_linear_47_453" x1="25.0442" y1="13.75" x2="25.0442" y2="31.25" gradientUnits="userSpaceOnUse">
<stop stop-color="#08B805" stop-opacity="0.45"/>
<stop offset="1" stop-color="#08B805"/>
</linearGradient>
</defs>
</svg>
